<svg xmlns="http://www.w3.org/2000/svg" viewBox="0 0 130.04 251.34"><defs><style>.cls-1{fill:#231815;}.cls-2{fill:#fff;}</style></defs><g id="图层_2" data-name="图层 2"><g id="图层_1-2" data-name="图层 1"><path class="cls-1" d="M64.15,0A155.92,155.92,0,0,1,81.81,19.19a156.37,156.37,0,0,1,15.87,25H30.62A152.56,152.56,0,0,1,64.15,0Z"/><path class="cls-1" d="M30.47,46.45l69.44.08a139.17,139.17,0,0,1,10,26.21,139.71,139.71,0,0,1,4.76,41.19l6.13,5.79,5.11,6.75,2.89,7.72L130,149.51l-1.19,10-1.7,6.64-3.41,7.32-4.93,7.83-4.43,4.59L110.47,189l-3.41.85h-2.38c-.82-.74-1.64-1.48-2.47-2.21a41.93,41.93,0,0,1-1.59-5,42.41,42.41,0,0,1-.84-4.22q-.78-3.31-1.57-6.63l-3.06,4.08H35.06L32,171.13l-1.53,10-1.7,6-2.05,2.72-3.57.85-6.81-3.57-8.17-10-6.64-14.8L0,149l1-10.72,2.21-10.9,4.6-5.79,4.43-4.25,3.06-3.41,1-15.82,2-15.83,4.26-16,3.23-10.05Z"/><ellipse class="cls-2" cx="64.15" cy="84.31" rx="23" ry="29.63"/><polygon class="cls-1" points="36.21 177.42 94.04 177.42 84.98 190.06 45.4 190.06 36.21 177.42"/><rect class="cls-1" x="43.77" y="197.98" width="9.57" height="38.43" rx="4.21"/><rect class="cls-1" x="61.23" y="199.51" width="9.57" height="51.83" rx="4.21"/><rect class="cls-1" x="76.81" y="199.51" width="9.57" height="30.13" rx="4.21"/></g></g></svg>